PathFileType	4	(X/Y/Z)	Run_400 02
DataRate	CameraRate	NumFrames	NumMarkers	Units	OrigDataRate	OrigDataStartFrame	OrigNumFrames
100	100	6	42	mm	100	176	128
Frame#	Time	LPSI			RPSI			RTH2			RTH3			LTH1			LTH2			LTH3			RTB1			RTB2			LTB1			LTB2			RCAL			RTOE			RMT5			LCAL			LTOE			LMT5			LACR			RACR			CLAV			C7			RUA1			RUA2			RUA3			RLEL			LUA1			LUA2			LUA3			LLEL			LMEL			RFAsuperior			RFAulna			LFAsuperior			LFAradius			LFAulna			RASI			RTB3			LTB3			RMEL			RFAradius			RTH1			LASI			
		X1	Y1	Z1	X2	Y2	Z2	X3	Y3	Z3	X4	Y4	Z4	X5	Y5	Z5	X6	Y6	Z6	X7	Y7	Z7	X8	Y8	Z8	X9	Y9	Z9	X10	Y10	Z10	X11	Y11	Z11	X12	Y12	Z12	X13	Y13	Z13	X14	Y14	Z14	X15	Y15	Z15	X16	Y16	Z16	X17	Y17	Z17	X18	Y18	Z18	X19	Y19	Z19	X20	Y20	Z20	X21	Y21	Z21	X22	Y22	Z22	X23	Y23	Z23	X24	Y24	Z24	X25	Y25	Z25	X26	Y26	Z26	X27	Y27	Z27	X28	Y28	Z28	X29	Y29	Z29	X30	Y30	Z30	X31	Y31	Z31	X32	Y32	Z32	X33	Y33	Z33	X34	Y34	Z34	X35	Y35	Z35	X36	Y36	Z36	X37	Y37	Z37	X38	Y38	Z38	X39	Y39	Z39	X40	Y40	Z40	X41	Y41	Z41	X42	Y42	Z42	

154	2.4	821.016676	1077.586473	-420.660975	811.518746	1074.654488	-308.318642	822.03043	754.117462	-210.539144	860.115005	597.65736	-225.644672	953.953109	896.916364	-533.817012	968.91539	742.7598	-506.917247	1091.521313	660.775279	-502.738743	838.012389	346.374154	-311.886893	748.327354	339.478506	-243.296824	1106.607125	470.552357	-440.483823	968.192492	480.648227	-495.864068	530.29202	139.587302	-333.755783	758.583943	69.03186100000001	-365.358325	706.483412	50.597613	-269.120179	725.243654	395.834667	-420.112455	857.13068	197.854909	-425.017169	796.533922	216.025798	-517.645544	946.845885	1513.108469	-496.706764	988.117826	1470.204401	-176.760792	1027.599756	1446.462608	-311.943439	907.598759	1521.883446	-334.32184	899.8054969999999	1362.448671	-103.398041	947.950694	1304.791925	-88.71731200000001	894.094065	1222.416824	-42.033314	874.195823	1159.818875	-14.080919	828.042856	1448.560075	-541.9834059999999	834.592088	1378.426119	-592.040101	746.237699	1344.356903	-617.939524	709.505997	1290.544805	-646.883346	685.889968	1266.806855	-562.135595	976.665438	1124.321754	-36.263963	1110.709626	1072.778889	-113.732372	754.051235	1215.957985	-645.1475380000001	904.014373	1143.624651	-553.343257	875.669497	1092.139135	-594.375119	965.776908	1013.232318	-229.034998	708.383922	202.76505	-329.330258	911.620304	371.704354	-444.094338	866.079749	1134.849658	-101.387443	1113.183727	1128.748709	-154.095434	877.120725	899.288175	-180.99868	972.356645	1021.55886	-501.356152	
155	2.41	823.278477	1084.961007	-418.714421	815.555794	1081.167835	-306.356991	815.436602	763.477862	-209.524734	842.314983	605.674024	-225.775046	956.047021	908.0911160000001	-535.478472	973.6775720000001	753.104824	-505.868884	1098.322318	674.924041	-502.244068	807.3549400000001	354.162691	-310.361467	717.755574	349.646749	-242.203728	1125.512584	481.046739	-441.682703	985.587864	477.847371	-493.424711	498.743331	155.422038	-329.86837	718.710119	68.39275499999999	-364.651397	666.737854	51.789203	-268.810621	753.642284	367.260943	-415.10658	906.251592	184.995375	-424.094043	841.8312979999999	196.515829	-514.933206	943.863744	1521.746445	-496.865644	990.4459000000001	1479.234169	-178.39026	1027.791501	1455.137965	-314.594439	907.243794	1529.377847	-334.333636	904.193879	1370.154172	-104.137769	953.924674	1312.994261	-90.729315	902.435607	1229.518359	-43.71789	883.776913	1166.062173	-16.400958	823.8031120000001	1460.939121	-539.7907279999999	827.70087	1390.916466	-591.14521	737.988293	1359.28917	-615.839968	699.11053	1306.752721	-644.075022	677.347529	1282.256148	-559.010094	987.084309	1136.391898	-41.600952	1122.116017	1094.616703	-123.10194	743.797359	1232.792583	-643.599754	895.689345	1161.149087	-555.2019320000001	868.004382	1109.907974	-596.821697	970.9221240000001	1017.903765	-229.778157	676.045451	212.465869	-327.666807	940.881366	362.790241	-441.799359	874.517754	1142.180588	-104.082304	1119.620526	1150.919537	-162.840174	880.453449	904.981598	-182.202608	974.670482	1028.946174	-499.29326	
156	2.42	825.135182	1092.7633	-416.444682	820.338996	1087.918903	-304.103501	809.625222	773.747573	-208.40909	824.903994	615.747709	-225.762326	957.8029289999999	919.19328	-537.072015	977.453399	763.541508	-504.487244	1103.231264	688.083471	-501.651965	778.202394	363.995947	-308.245306	688.702174	361.51142	-240.463048	1142.45724	490.872626	-443.485602	1002.023251	474.097757	-490.477957	470.55112	172.688442	-325.830668	679.926741	67.612022	-363.405901	628.074445	53.304845	-268.214211	784.913866	338.393685	-408.308586	955.962905	173.882529	-423.480832	887.781132	178.54943	-511.847357	941.337174	1530.519809	-497.05385	992.970729	1488.776488	-180.055214	1028.094155	1464.114315	-317.111374	907.070336	1537.190069	-334.290191	908.326112	1378.700249	-104.711924	959.574402	1321.837778	-92.710296	910.0627940000001	1237.58685	-45.260656	892.464419	1173.331561	-18.583728	820.219759	1473.271395	-537.794926	821.765947	1403.390161	-590.046781	730.751399	1374.395828	-613.400034	689.792466	1322.885875	-640.8517880000001	669.795426	1297.864822	-555.575545	996.149538	1149.149366	-46.631885	1131.340544	1116.888288	-132.055756	734.342506	1249.271617	-641.6964369999999	888.303842	1178.431204	-556.728616	860.643671	1127.168706	-598.336745	976.851303	1022.879268	-230.062821	646.977206	223.987754	-326.441735	970.916331	353.977087	-439.334434	881.644649	1150.55284	-106.551878	1124.156803	1173.227106	-171.34898	885.875648	910.434242	-183.732292	976.5642759999999	1036.729056	-496.938092	
157	2.43	826.757267	1100.845893	-414.076725	825.617282	1094.764662	-301.523426	804.454436	784.605488	-207.192612	808.339602	627.466615	-225.645547	958.997509	929.723473	-538.521871	980.404297	773.638762	-502.647432	1106.271039	699.753156	-500.814912	751.269186	375.551489	-305.753143	661.7835229999999	374.6597	-238.167795	1157.333458	499.671398	-445.014563	1017.810115	469.106537	-487.428732	445.988339	191.17325	-322.091248	642.5954819999999	67.023777	-362.310446	590.805341	55.707106	-267.568055	818.718899	309.947684	-400.515269	1005.910658	164.92274	-422.900205	934.378485	162.186088	-508.265693	939.120371	1539.16205	-497.114453	995.632838	1498.337941	-181.84288	1028.561717	1472.949294	-319.403705	907.03089	1544.822515	-334.199577	912.574088	1387.802929	-104.81391	964.992281	1330.977793	-94.53626300000001	916.983013	1246.3473	-46.458898	900.406696	1181.352891	-20.376345	817.098887	1485.194319	-535.846644	816.593529	1415.638559	-588.799039	724.4066309999999	1389.284903	-610.566283	681.6082290000001	1338.529366	-637.345692	663.2628099999999	1313.057784	-551.814245	1004.063453	1162.529481	-51.411372	1138.597899	1138.898206	-140.405056	725.98905	1265.203138	-639.5074969999999	881.900632	1194.958085	-557.927923	853.82335	1143.375119	-599.010536	983.241349	1027.95451	-230.861644	621.248929	236.512687	-324.93299	1001.203962	345.441235	-436.753851	887.585461	1159.580713	-108.46879	1127.062708	1195.08853	-179.415523	891.95566	915.642527	-185.25454	978.1806340000001	1044.78869	-494.393998	
158	2.44	828.602527	1108.818013	-411.876124	830.9906580000001	1101.5318	-298.862699	800.0164140000001	795.768099	-206.002118	793.511539	640.1487530000001	-225.378702	959.589166	939.309399	-539.802023	982.346735	782.797712	-500.240109	1107.413535	709.3584970000001	-499.302503	726.9819670000001	388.646538	-303.18804	637.185589	389.122993	-235.688715	1170.196745	507.038142	-445.380864	1033.456725	462.578754	-484.616591	425.007373	211.175939	-318.685385	606.548026	67.227172	-361.711928	555.186191	59.977984	-266.740824	854.550484	282.545811	-392.829919	1055.620515	158.426393	-421.716402	981.709583	147.728983	-504.183559	937.21117	1547.374042	-496.941422	998.234635	1507.40575	-183.806295	1029.155881	1481.198134	-321.501513	907.143698	1551.887772	-334.058112	916.8945639999999	1396.939817	-104.680633	970.182042	1340.046892	-96.146361	923.2786630000001	1255.44814	-47.166296	907.72812	1189.763248	-21.619561	814.398983	1496.425214	-533.788587	811.963499	1427.404457	-587.4123939999999	718.7511	1403.404219	-607.3129300000001	674.452036	1353.171317	-633.606394	657.751361	1327.12434	-547.795427	1010.908325	1176.175103	-55.989346	1144.210216	1160.100834	-147.938004	718.785963	1280.227269	-637.108249	876.533681	1210.345897	-558.9736789999999	847.888821	1158.344802	-599.375918	989.545175	1032.848018	-233.139143	598.225107	249.609269	-322.421545	1031.320088	337.279551	-434.067346	892.738371	1168.648197	-109.632306	1128.62335	1215.966911	-186.70192	896.990726	921.004415	-186.306231	980.011005	1052.804767	-491.860535	
159	2.45	830.756256	1116.188826	-410.005708	836.060595	1107.965041	-296.620394	796.52648	806.950881	-205.075818	781.125402	652.988222	-224.983255	959.74888	947.599723	-541.020391	982.743164	790.319988	-497.499163	1106.705738	716.419225	-496.91219	705.652614	402.82189	-300.923424	615.0995809999999	404.744972	-233.572282	1181.249844	512.75571	-444.273408	1049.411824	454.50494	-482.168648	407.717181	232.784844	-315.251607	571.732575	68.921678	-361.406587	521.706015	66.85747000000001	-265.475711	891.830282	256.710094	-386.333043	1104.501813	154.383785	-419.022327	1029.893582	135.464113	-499.56745	935.691157	1554.82564	-496.570211	1000.611899	1515.614392	-185.881956	1029.796679	1488.487094	-323.494983	907.466364	1558.158041	-333.838622	920.998586	1405.595683	-104.734797	975.022784	1348.729563	-97.488276	929.062684	1264.465349	-47.312453	914.507384	1198.087822	-22.241027	812.149009	1506.682284	-531.5983220000001	807.752072	1438.330486	-585.8840259999999	713.6372239999999	1416.212866	-603.702749	668.168804	1366.308768	-629.642556	653.157903	1339.417504	-543.68443	1016.730207	1189.458551	-60.194661	1148.435144	1180.014797	-154.59936	712.588678	1293.900312	-634.567749	872.236342	1224.355285	-560.107705	843.022281	1172.004399	-599.886635	995.26015	1037.298797	-236.587067	577.526658	263.160811	-319.075151	1061.097678	329.598204	-431.267433	897.446203	1177.133467	-109.986489	1129.069922	1235.32126	-193.015987	900.292311	926.82264	-186.57527	982.234687	1060.292316	-489.703629	
